<svg t="1619247040747" class="icon" viewBox="0 0 1024 1024" version="1.1" xmlns="http://www.w3.org/2000/svg" p-id="1400" width="1024" height="1024"><path d="M263.445 145.228c8.774 54.606 33.745 129.772 65.994 151.726 24.29 16.52 45.742 22.872 97.463 30.336l4.992 0.71 2.576 0.347 1.364 0.193c44.684 6.37 56.562 11.135 60.188 18.036l0.366 0.707c11.892 23.43 30.858 103.093 40.755 175.565l0.843 6.273c1.21 9.027 2.362 18.634 4.062 33.594l3.904 34.87 1.027 9.027c6.278 54.464 11.07 81.404 19.235 101.894l0.531 1.313c12.614 30.687 34.856 45.57 67.02 45.57 52.1 0 80.29-25.988 98.809-81.891l4.071-12.6 0.93-2.812a371.44 371.44 0 0 1 2.96-8.49l0.917-2.54a142.131 142.131 0 0 1 6.8-15.455l1.046-2.002 0.74-1.323c2.156-3.812 4.348-7.178 6.7-10.287 63.876-84.222 107.487-170.953 107.487-225.35 0-17.385-6.828-100.313-14.773-155.797C914.112 314.57 953 414.493 953 523.5 953 771.2 752.2 972 504.5 972a452.996 452.996 0 0 1-55.156-3.358l0.005-0.013c14.258-37.625 25.038-97.086 19.233-129.917-6.74-37.98-25.893-62.856-64.596-88.996l-1.062-0.717-17.029-11.273-2.051-1.336a244.77 244.77 0 0 1-14.256-10.075c-9.544-7.295-17.06-14.575-23.66-22.915-8.782-11.195-10.491-15.706-10.833-33.934l-0.087-6.64c-0.16-10.986-0.477-16.793-1.372-23.807l-0.201-1.523c-3.76-26.568-15.095-49.048-35.12-69.426-42.117-42.857-147.166-33.113-240.312-2.006l-0.01 0.003A454.05 454.05 0 0 1 56 523.5c0-158.528 82.248-297.846 206.4-377.61zM68.398 625.718c75.01-26.48 164.207-39.197 187.265-15.733 11.182 11.379 16.62 22.162 18.539 35.725 0.615 4.53 0.85 8.106 0.989 16.433l0.068 5.202c0.424 33.096 5.608 50.004 23.698 73.066 9.86 12.457 20.941 23.193 34.396 33.476l1.74 1.312a303.075 303.075 0 0 0 15.893 11.155l1.553 1.013 0.722 0.486 15.544 10.269 2.77 1.869c25.598 17.458 34.618 29.395 38.124 49.152 4.48 25.332-8.96 84.926-20.402 107.92C229.954 914.837 105.41 787.1 67.754 625.949zM504.5 75c98.86 0 190.25 31.986 264.385 86.173 0.208 4.454 1.152 9.099 2.677 14.416 1.515 5.285 3.831 12.046 7.972 23.313l4.012 10.819c9.227 24.878 20.879 166.627 20.879 182.919 0 37.473-38.854 114.743-95.354 189.24-4.505 5.955-8.518 12.232-12.292 19.125l-1.341 2.54a201.931 201.931 0 0 0-10.352 23.525l-1.95 5.441a430.248 430.248 0 0 0-3.37 9.926l-4.028 12.467-1.028 3.055c-10.545 30.792-18.66 37.63-40.945 37.63h-0.518c-6.928-0.014-7.785-0.385-10.55-6.96l-0.642-1.545c-5.797-14.104-10.158-38.942-16.117-91.23l-4.467-39.842-1.73-14.972c-0.713-6.03-1.344-11.151-1.971-15.973l-1.079-8.11c-10.764-80.21-31.606-167.63-47.755-198.24-8.584-16.336-21.864-27.519-40.954-35.088-14.653-5.81-33.264-9.885-61.994-14.042l-3.36-0.48-2.592-0.35-2.91-0.411c-44.445-6.338-58.936-10.555-74.046-20.832l-0.982-0.678c-21.609-15.115-39.948-96.698-42.063-132.252l-0.006-0.012C376.295 89.151 438.745 75 504.5 75z" fill="#333333" p-id="1401"></path></svg>